<!-- Generated by IcoMoon.io -->
<svg version="1.1" xmlns="http://www.w3.org/2000/svg" width="41" height="64" viewBox="0 0 41 64">
<title>mouse-pointer</title>
<path fill="#02a" d="M40.464 37.25c0.679 0.643 0.857 1.643 0.5 2.464-0.357 0.857-1.179 1.429-2.107 1.429h-13.643l7.179 17c0.5 1.179-0.071 2.5-1.214 3l-6.321 2.679c-1.179 0.5-2.5-0.071-3-1.214l-6.821-16.143-11.143 11.143c-0.429 0.429-1 0.679-1.607 0.679-0.286 0-0.607-0.071-0.857-0.179-0.857-0.357-1.429-1.179-1.429-2.107v-53.714c0-0.929 0.571-1.75 1.429-2.107 0.25-0.107 0.571-0.179 0.857-0.179 0.607 0 1.179 0.214 1.607 0.679z"></path>
</svg>
